<?xml version="1.0" encoding="UTF-8"?> <svg xmlns="http://www.w3.org/2000/svg" xmlns:xlink="http://www.w3.org/1999/xlink" width="290px" height="80px" viewBox="0 0 290 80" version="1.1"><!-- Generator: Sketch 61.2 (89653) - https://sketch.com --><title>Group 53</title><desc>Created with Sketch.</desc><g id="Page-2" stroke="none" stroke-width="1" fill="none" fill-rule="evenodd"><g id="MANUAL-DE-MARCA-noviembre" transform="translate(-497.000000, -178.000000)"><g id="Group-53" transform="translate(497.000000, 178.000000)"><path d="M90.0117,29.9678 C90.0117,27.3098 91.4147,25.9068 94.0727,25.9068 L98.8717,25.9068 C101.5297,25.9068 102.9327,27.3098 102.9327,29.9678 L102.9327,74.6388 C102.9327,77.2968 101.5297,78.6988 98.8717,78.6988 L94.0727,78.6988 C91.4147,78.6988 90.0117,77.2968 90.0117,74.6388 L90.0117,29.9678 Z" id="Fill-23" fill="#006D46"></path><path d="M121.7008,29.2292 C122.4388,26.9402 123.9158,25.9072 126.2788,25.9072 L132.9238,25.9072 C135.2868,25.9072 136.7628,26.9402 137.5018,29.2292 L152.7858,74.0472 C153.7458,76.8532 152.4168,78.6992 149.4628,78.6992 L144.5898,78.6992 C142.2268,78.6992 140.7508,77.5922 140.0118,75.3022 L137.7968,67.6242 L121.3318,67.6242 L119.1168,75.3022 C118.4518,77.5922 116.9748,78.6992 114.6128,78.6992 L109.7398,78.6992 C106.7858,78.6992 105.4568,76.8532 106.4168,74.0472 L121.7008,29.2292 Z M134.7698,57.2872 L131.8168,47.0232 C130.8568,43.7012 129.6748,37.9422 129.6748,37.9422 L129.5278,37.9422 C129.5278,37.9422 128.3458,43.7012 127.3858,47.0232 L124.3588,57.2872 L134.7698,57.2872 Z" id="Fill-25" fill="#006D46"></path><path d="M155.8871,29.9678 C155.8871,27.3098 157.2901,25.9068 159.9481,25.9068 L165.7071,25.9068 C167.9961,25.9068 169.4731,26.7188 170.5801,28.6388 L183.5751,50.5678 C185.6431,54.0378 188.0051,59.5758 188.0051,59.5758 L188.1531,59.5758 C188.1531,59.5758 187.5621,53.8908 187.5621,50.5678 L187.5621,29.9678 C187.5621,27.3098 188.9651,25.9068 191.6231,25.9068 L196.4231,25.9068 C199.0811,25.9068 200.4841,27.3098 200.4841,29.9678 L200.4841,74.6388 C200.4841,77.2968 199.0811,78.6988 196.4231,78.6988 L190.6631,78.6988 C188.4481,78.6988 186.9721,77.8868 185.8641,75.9678 L172.7951,54.1118 C170.7281,50.6418 168.3651,45.1038 168.3651,45.1038 L168.2181,45.1038 C168.2181,45.1038 168.8081,50.7898 168.8081,54.1118 L168.8081,74.6388 C168.8081,77.2968 167.4051,78.6988 164.7471,78.6988 L159.9481,78.6988 C157.2901,78.6988 155.8871,77.2968 155.8871,74.6388 L155.8871,29.9678 Z" id="Fill-27" fill="#006D46"></path><path d="M205.6384,68.7313 L207.9274,65.4083 C209.4044,63.2673 211.1024,63.1203 213.5384,64.4493 C215.2364,65.3353 218.5594,67.6973 223.1374,67.6973 C226.9764,67.6973 228.7484,66.0733 228.7484,64.0063 C228.7484,56.5483 205.4164,57.7293 205.4164,41.1903 C205.4164,31.4443 213.5384,25.0203 224.2444,25.0203 C230.3734,25.0203 235.9844,27.1623 238.4954,28.9343 C240.6364,30.4843 240.8574,32.3303 239.7504,34.4713 L237.9784,37.9423 C236.5014,40.8213 234.5084,40.3783 232.4404,39.3453 C230.0044,38.1633 227.5674,36.9083 224.0974,36.9083 C220.0364,36.9083 218.3384,38.5333 218.3384,40.6003 C218.3384,48.2793 241.6704,46.4333 241.6704,63.1203 C241.6704,71.9803 235.0244,79.5853 223.1374,79.5853 C215.7534,79.5853 209.1824,76.5583 206.3764,74.3433 C204.8264,73.0883 203.7184,71.4633 205.6384,68.7313" id="Fill-29" fill="#006D46"></path><path d="M257.8382,29.2292 C258.5762,26.9402 260.0532,25.9072 262.4162,25.9072 L269.0612,25.9072 C271.4242,25.9072 272.9002,26.9402 273.6392,29.2292 L288.9232,74.0472 C289.8832,76.8532 288.5542,78.6992 285.6002,78.6992 L280.7272,78.6992 C278.3642,78.6992 276.8882,77.5922 276.1492,75.3022 L273.9342,67.6242 L257.4692,67.6242 L255.2542,75.3022 C254.5892,77.5922 253.1122,78.6992 250.7502,78.6992 L245.8772,78.6992 C242.9232,78.6992 241.5942,76.8532 242.5542,74.0472 L257.8382,29.2292 Z M270.9072,57.2872 L267.9542,47.0232 C266.9942,43.7012 265.8122,37.9422 265.8122,37.9422 L265.6642,37.9422 C265.6642,37.9422 264.4832,43.7012 263.5232,47.0232 L260.4962,57.2872 L270.9072,57.2872 Z" id="Fill-31" fill="#006D46"></path><path d="M78.6108,59.4149 L78.6108,65.7789 C78.6108,73.0489 72.7178,78.9419 65.4478,78.9419 L59.0838,78.9419 L53.6338,78.9419 L29.7648,78.9419 L19.9728,78.9419 L13.6088,78.9419 C6.3398,78.9419 0.4458,73.0489 0.4458,65.7789 L0.4458,59.4149 L0.4458,49.6229 L0.4458,43.2589 L0.4458,25.7539 L0.4458,20.3039 L0.4458,13.9399 C0.4458,6.6709 6.3398,0.7769 13.6088,0.7769 L19.9728,0.7769 L19.9728,0.7769 L53.6338,0.7769 L53.6338,7.1419 C53.6338,14.4109 47.7408,20.3039 40.4718,20.3039 L19.9728,20.3039 L19.9728,30.0959 L49.9288,30.0959 L49.9288,36.4609 C49.9288,43.7299 44.0358,49.6229 36.7668,49.6229 L19.9728,49.6229 L19.9728,59.4149 L34.1068,59.4149 L40.4718,59.4149 L59.0838,59.4149 L59.0838,38.9169 C59.0838,31.6469 64.9768,25.7539 72.2468,25.7539 L78.6108,25.7539 L78.6108,59.4149 Z" id="Fill-33" fill="#006D46"></path><path d="M80.8682,1.6764 C77.1062,7.8044 78.5472,9.9004 74.2602,17.1494 C69.5032,25.1924 61.8812,23.9344 58.9432,23.0744 C58.6862,24.1424 58.4872,25.2614 58.3432,26.4304 C58.2882,26.8784 57.9252,27.2264 57.4742,27.2504 C56.8812,27.2814 56.4122,26.7494 56.5152,26.1644 C59.0022,12.0774 66.2792,7.4224 69.0932,6.1244 C69.4642,5.9674 69.8392,5.8184 70.2222,5.6834 C70.2222,5.6834 69.7962,5.7994 69.0932,6.1244 C65.9692,7.4464 63.2652,9.5394 61.0442,12.3634 C59.2342,14.6644 57.7012,17.4674 56.4902,20.7304 C55.1192,17.9994 53.7622,12.5944 59.1622,6.0324 C66.2202,-2.5426 80.8682,1.6764 80.8682,1.6764" id="Fill-35" fill="#61A60D"></path><path d="M124.6614,7.2772 C124.4024,8.0292 124.1754,8.7942 123.8784,9.5302 C123.1364,11.3712 122.3654,13.2002 121.6014,15.0322 C121.2304,15.9232 120.8484,16.8092 120.4704,17.6962 C120.3904,17.8842 120.3114,18.0732 120.2154,18.2532 C119.9594,18.7342 119.5644,19.0052 119.0084,19.0092 C118.5254,19.0132 118.0414,19.0052 117.5584,19.0162 C116.8174,19.0342 116.3324,18.6922 116.0514,18.0132 C115.5334,16.7612 115.0054,15.5142 114.4774,14.2672 C113.5184,11.9952 112.5294,9.7352 111.7644,7.2732 C111.7264,7.4092 111.7084,7.4442 111.7074,7.4792 C111.6694,8.7592 111.6584,10.0412 111.5894,11.3202 C111.5224,12.5792 111.3944,13.8362 111.2944,15.0932 C111.2494,15.6672 111.2074,16.2412 111.1654,16.8152 C111.0494,18.3882 110.9374,19.9612 110.8174,21.5342 C110.7544,22.3552 110.3054,22.7772 109.4844,22.7912 C108.9834,22.8002 108.4804,22.8052 107.9794,22.7892 C107.2104,22.7642 106.7804,22.3212 106.7934,21.5452 C106.8004,21.0632 106.8574,20.5822 106.8984,20.1022 C107.0324,18.5302 107.1724,16.9602 107.3034,15.3882 C107.3924,14.3342 107.4684,13.2792 107.5534,12.2242 C107.6544,10.9852 107.7624,9.7472 107.8624,8.5082 C107.9484,7.4532 108.0294,6.3992 108.1114,5.3442 C108.1924,4.2902 108.2594,3.2332 108.3584,2.1802 C108.4144,1.5822 108.5974,0.9792 109.2754,0.8692 C110.2444,0.7122 111.2354,0.7082 112.2084,0.8782 C112.7134,0.9662 112.9724,1.3732 113.1524,1.8202 C113.5624,2.8352 113.9704,3.8512 114.3774,4.8672 C115.2254,6.9852 116.0864,9.0982 116.9154,11.2242 C117.3264,12.2782 117.6784,13.3542 118.0574,14.4202 C118.1014,14.5412 118.1484,14.6602 118.2164,14.8402 C118.3744,14.3592 118.4944,13.9352 118.6514,13.5252 C119.4994,11.3082 120.3484,9.0912 121.2124,6.8802 C121.8544,5.2382 122.5204,3.6062 123.1754,1.9702 C123.5424,1.0522 123.9174,0.7942 124.8984,0.7902 C125.4934,0.7872 126.0884,0.8042 126.6824,0.7872 C127.3724,0.7682 127.9524,1.2652 128.0034,2.0112 C128.0974,3.3812 128.2194,4.7492 128.3354,6.1172 C128.4684,7.6882 128.6124,9.2592 128.7434,10.8312 C128.8364,11.9592 128.9084,13.0892 129.0004,14.2172 C129.0924,15.3452 129.2034,16.4722 129.2924,17.6002 C129.3934,18.8762 129.4974,20.1532 129.5654,21.4322 C129.6164,22.3942 129.2134,22.7842 128.2394,22.7932 C127.7744,22.7972 127.3094,22.8032 126.8454,22.7892 C126.1414,22.7682 125.7244,22.4312 125.6184,21.7402 C125.5224,21.1182 125.4774,20.4872 125.4294,19.8582 C125.3364,18.6372 125.2624,17.4142 125.1694,16.1922 C125.0734,14.9162 124.9344,13.6412 124.8684,12.3632 C124.7864,10.7882 124.7604,9.2092 124.7124,7.6322 C124.7084,7.5202 124.7114,7.4092 124.7114,7.2982 C124.6944,7.2912 124.6784,7.2842 124.6614,7.2772" id="Fill-37" fill="#61A60D"></path><path d="M164.1968,13.4243 C165.1558,15.1693 166.0858,16.8603 167.0148,18.5513 C167.4178,19.2833 167.8208,20.0153 168.2188,20.7493 C168.3518,20.9933 168.4878,21.2383 168.5928,21.4953 C168.8568,22.1433 168.5758,22.7093 167.8938,22.7613 C167.0998,22.8223 166.2948,22.8163 165.4998,22.7613 C164.9178,22.7213 164.5518,22.2993 164.2868,21.7993 C163.6618,20.6183 163.0338,19.4383 162.4078,18.2583 C161.8608,17.2243 161.3158,16.1903 160.7688,15.1573 C160.6828,14.9943 160.5878,14.8353 160.4858,14.6553 L156.6948,14.6553 C156.6878,14.8563 156.6748,15.0523 156.6748,15.2473 C156.6728,17.1983 156.6738,19.1493 156.6728,21.1003 C156.6728,21.3233 156.6748,21.5473 156.6538,21.7683 C156.5978,22.3493 156.2288,22.7483 155.6538,22.7773 C155.0058,22.8113 154.3528,22.8113 153.7038,22.7773 C153.1298,22.7473 152.7648,22.3473 152.7088,21.7643 C152.6878,21.5423 152.6898,21.3183 152.6898,21.0963 C152.6888,14.8903 152.6888,8.6843 152.6898,2.4793 C152.6898,2.2753 152.6878,2.0693 152.7058,1.8663 C152.7598,1.2543 153.1168,0.8833 153.7258,0.8023 C153.8358,0.7883 153.9478,0.790201235 154.0598,0.790201235 C156.3818,0.7933 158.7048,0.7823 161.0268,0.8103 C161.8218,0.8203 162.6188,0.9053 163.3908,1.1293 C165.7648,1.8193 167.3778,3.7583 167.7058,6.2103 C167.9348,7.9293 167.6788,9.5353 166.8158,11.0393 C166.2458,12.0333 165.4458,12.7873 164.4208,13.3013 C164.3398,13.3423 164.2608,13.3893 164.1968,13.4243 L164.1968,13.4243 Z M156.7028,11.0453 C158.1218,11.0453 159.4988,11.1283 160.8618,11.0243 C162.4628,10.9023 163.2768,9.7993 163.5428,8.7263 C163.6978,8.1023 163.7108,7.4693 163.6128,6.8493 C163.4178,5.6173 162.7138,4.7923 161.4818,4.4923 C161.0168,4.3793 160.5338,4.3083 160.0568,4.2933 C159.0748,4.2623 158.0908,4.2803 157.1078,4.2803 C156.9818,4.2803 156.8558,4.2963 156.7028,4.3073 L156.7028,11.0453 Z" id="Fill-39" fill="#61A60D"></path><path d="M217.2903,17.2198 L209.6643,17.2198 C209.6113,17.3518 209.5433,17.4988 209.4923,17.6518 C209.0493,18.9698 208.5913,20.2838 208.1743,21.6098 C207.9453,22.3368 207.4573,22.8528 206.5283,22.7988 C206.0653,22.7718 205.5993,22.8048 205.1353,22.7888 C204.3073,22.7598 203.9033,22.2528 204.1233,21.4578 C204.3163,20.7628 204.5753,20.0848 204.8163,19.4038 C206.8523,13.6358 208.8913,7.8688 210.9313,2.1018 C211.0053,1.8928 211.0903,1.6838 211.2003,1.4928 C211.4493,1.0598 211.8323,0.8088 212.3343,0.7988 C213.0953,0.7828 213.8583,0.7758 214.6183,0.7988 C215.3133,0.8198 215.7413,1.2148 215.9663,1.8578 C216.4443,3.2218 216.9283,4.5848 217.4103,5.9478 C219.1903,10.9808 220.9713,16.0138 222.7463,21.0488 C222.8253,21.2728 222.8833,21.5138 222.8983,21.7508 C222.9353,22.3428 222.6323,22.7348 222.0463,22.7708 C221.3613,22.8128 220.6703,22.8158 219.9863,22.7668 C219.4953,22.7308 219.1243,22.4328 218.9413,21.9568 C218.7873,21.5598 218.6513,21.1548 218.5143,20.7518 C218.1633,19.7158 217.8163,18.6788 217.4643,17.6428 C217.4173,17.5048 217.3533,17.3728 217.2903,17.2198 M213.4893,4.8688 C212.8193,7.9308 211.6173,10.8088 210.6983,13.8168 L216.2693,13.8168 C215.3353,10.8118 214.1793,7.9208 213.4893,4.8688" id="Fill-41" fill="#61A60D"></path><path d="M137.9403,15.2149 L137.9403,17.8669 C137.9403,18.9619 137.9413,20.0579 137.9393,21.1529 C137.9393,21.3579 137.9413,21.5629 137.9213,21.7659 C137.8643,22.3479 137.4983,22.7469 136.9243,22.7779 C136.2763,22.8109 135.6243,22.8109 134.9753,22.7779 C134.4013,22.7479 134.0333,22.3499 133.9763,21.7699 C133.9543,21.5479 133.956227,21.3239 133.956227,21.1019 C133.956227,14.8999 133.956227,8.6969 133.956227,2.4949 C133.956227,2.2909 133.9543,2.0859 133.9713,1.8829 C134.0233,1.2439 134.3923,0.8709 135.0313,0.7989 C135.1233,0.788875405 135.2163,0.7899 135.3093,0.7899 C137.7793,0.7909 140.2483,0.7829 142.7183,0.7999 C143.8673,0.8069 144.9593,1.0929 145.9663,1.6519 C147.7873,2.6609 148.8583,4.2319 149.2543,6.2469 C149.5903,7.9569 149.4843,9.6489 148.7503,11.2579 C147.7603,13.4319 146.0693,14.7119 143.7163,15.0999 C143.2253,15.1809 142.7213,15.2039 142.2223,15.2099 C140.9973,15.2249 139.7713,15.2149 138.5453,15.2149 L137.9403,15.2149 Z M137.9623,11.7049 C139.3373,11.7049 140.6533,11.7139 141.9683,11.6979 C142.2613,11.6949 142.5573,11.6269 142.8433,11.5529 C143.9263,11.2719 144.6853,10.6059 145.0433,9.5459 C145.1953,9.0959 145.2843,8.6089 145.3063,8.1339 C145.3463,7.2909 145.2093,6.4659 144.7343,5.7419 C144.0643,4.7199 143.0553,4.3179 141.8863,4.2879 C140.6993,4.2589 139.5123,4.2789 138.3253,4.2819 C138.2043,4.2819 138.0833,4.3149 137.9623,4.3329 L137.9623,11.7049 Z" id="Fill-43" fill="#61A60D"></path><path d="M94.3743,4.2792 L94.3743,9.9542 L95.0073,9.9542 L99.9683,9.9542 C100.0983,9.9542 100.2283,9.9512 100.3583,9.9552 C101.3523,9.9882 101.7723,10.4142 101.7843,11.4042 C101.7873,11.6462 101.7903,11.8882 101.7833,12.1292 C101.7583,13.0122 101.3583,13.4342 100.4793,13.4412 C98.7143,13.4552 96.9493,13.4472 95.1843,13.4472 C94.9293,13.4472 94.6733,13.4472 94.4313,13.4472 C94.3233,13.9172 94.2903,18.3102 94.3813,19.2812 C94.5673,19.2892 94.7633,19.3042 94.9593,19.3042 C97.4483,19.3052 99.9383,19.3042 102.4273,19.3072 C102.6493,19.3072 102.8763,19.3102 103.0913,19.3572 C103.6863,19.4872 103.9863,19.8402 104.0173,20.4462 C104.0373,20.8542 104.0393,21.2652 104.0153,21.6722 C103.9773,22.3242 103.5653,22.7312 102.9183,22.7862 C102.7703,22.7992 102.6213,22.7942 102.4723,22.7942 C98.9423,22.7942 95.4123,22.7942 91.8833,22.7942 C91.7903,22.7942 91.6973,22.7951452 91.6043,22.7922 C90.7783,22.7712 90.3963,22.3912 90.3623,21.5512 C90.3553,21.3842 90.3573,21.2172 90.3573,21.0502 C90.3573,14.8822 90.3563,8.7142 90.3573,2.5462 C90.3573,2.3232 90.3543,2.0992 90.3733,1.8782 C90.4233,1.2622 90.7763,0.8852 91.3823,0.8052 C91.5653,0.7802 91.7533,0.7902 91.9393,0.7902 C95.2643,0.7892 98.5903,0.8072 101.9153,0.779023757 C103.0173,0.7692 103.5913,1.1832 103.5583,2.4172 C103.5513,2.6762 103.5713,2.9402 103.5353,3.1952 C103.4433,3.8542 103.0483,4.2152 102.3843,4.2712 C102.2003,4.2862 102.0133,4.2792 101.8273,4.2792 C99.5613,4.2792 97.2943,4.2792 95.0283,4.2792 L94.3743,4.2792 Z" id="Fill-45" fill="#61A60D"></path><path d="M176.0958,4.2792 L176.0958,9.9232 C176.2998,9.9342 176.4948,9.9532 176.6898,9.9532 C178.4168,9.9552 180.1448,9.9522 181.8728,9.9572 C182.0938,9.9572 182.3198,9.9722 182.5348,10.0172 C183.1398,10.1452 183.4528,10.4722 183.5028,11.0742 C183.5378,11.4982 183.5388,11.9302 183.5018,12.3542 C183.4418,13.0442 183.0348,13.4082 182.3218,13.4372 C181.8398,13.4562 181.3568,13.4472 180.8738,13.4472 C179.4798,13.4482 178.0868,13.4472 176.6928,13.4472 L176.1128,13.4472 L176.1128,19.2822 C176.3028,19.2892 176.4998,19.3042 176.6968,19.3042 C179.1858,19.3052 181.6758,19.3032 184.1648,19.3082 C184.4038,19.3082 184.6498,19.3202 184.8808,19.3762 C185.4268,19.5092 185.7148,19.8422 185.7478,20.3942 C185.7738,20.8382 185.7768,21.2872 185.7448,21.7302 C185.7008,22.3242 185.2978,22.7152 184.7048,22.7822 C184.5398,22.8002 184.3708,22.7932 184.2038,22.7942 C180.6738,22.7942 177.1438,22.7942 173.6148,22.7942 C173.5218,22.7942 173.4288,22.7952 173.3358,22.7922 C172.5288,22.7712 172.1408,22.4002 172.0998,21.6042 C172.0898,21.4192 172.0918,21.2332 172.0918,21.0472 C172.0918,14.8792 172.0908,8.7112 172.0918,2.5432 C172.0918,2.3202 172.0888,2.0962 172.1078,1.8752 C172.1588,1.2592 172.5128,0.8852 173.1198,0.8042 C173.2848,0.7822 173.4538,0.7902 173.6208,0.7902 C176.9828,0.7892 180.3458,0.7892 183.7088,0.7892 C183.8018,0.7892 183.8948,0.7882 183.9868,0.7912 C184.7658,0.8222 185.1908,1.1982 185.2748,1.9752 C185.3118,2.3242 185.3048,2.6812 185.2848,3.0322 C185.2388,3.8322 184.8078,4.2422 184.0048,4.2762 C183.8378,4.2832 183.6708,4.2792 183.5038,4.2792 C181.2558,4.2792 179.0078,4.2792 176.7598,4.2792 L176.0958,4.2792 Z" id="Fill-47" fill="#61A60D"></path><path d="M195.236,23.1667 C192.952,23.1347 190.939,22.5057 189.09,21.3467 C188.794,21.1617 188.511,20.9417 188.262,20.6957 C187.906,20.3457 187.829,19.9007 188.091,19.4727 C188.419,18.9357 188.779,18.4137 189.167,17.9187 C189.473,17.5277 189.907,17.4317 190.37,17.6377 C190.64,17.7577 190.905,17.8977 191.149,18.0627 C192.115,18.7167 193.154,19.1907 194.315,19.3557 C195.226,19.4857 196.125,19.4617 196.996,19.1017 C198.522,18.4707 198.965,16.7597 197.929,15.4717 C197.413,14.8297 196.705,14.4497 195.989,14.0987 C195.006,13.6177 193.997,13.1917 193.004,12.7307 C192.127,12.3247 191.275,11.8687 190.507,11.2747 C189.495,10.4937 188.718,9.5287 188.433,8.2607 C187.863,5.7147 188.72,3.2097 191.016,1.7097 C192.239,0.9117 193.599,0.5207 195.058,0.4477 C197.071,0.3467 198.97,0.7427 200.74,1.7137 C201.015,1.8647 201.284,2.0407 201.521,2.2447 C201.992,2.6517 202.106,3.1297 201.844,3.6977 C201.62,4.1847 201.359,4.6597 201.074,5.1147 C200.77,5.6007 200.372,5.7227 199.823,5.5237 C199.529,5.4167 199.248,5.2667 198.974,5.1127 C197.8,4.4497 196.555,4.0767 195.196,4.1757 C194.504,4.2267 193.84,4.3917 193.259,4.7957 C192.245,5.5017 192.006,6.8257 192.703,7.8467 C193.025,8.3187 193.46,8.6747 193.96,8.9237 C194.906,9.3947 195.874,9.8207 196.829,10.2737 C197.65,10.6627 198.475,11.0447 199.279,11.4677 C200.057,11.8767 200.742,12.4207 201.306,13.1017 C202.309,14.3127 202.64,15.7137 202.501,17.2617 C202.344,19.0187 201.603,20.4647 200.243,21.5767 C199.087,22.5217 197.725,22.9767 196.253,23.1187 C195.884,23.1547 195.511,23.1547 195.236,23.1667" id="Fill-49" fill="#61A60D"></path><path d="M231.7733,23.2009 C229.5213,23.1459 227.4633,22.4869 225.5673,21.2939 C225.4883,21.2449 225.4143,21.1879 225.3383,21.1339 C224.3883,20.4659 224.2933,19.9509 224.9463,18.9929 C225.1553,18.6859 225.3583,18.3729 225.5883,18.0829 C226.0523,17.4959 226.4683,17.3979 227.1483,17.7239 C227.4313,17.8599 227.6923,18.0419 227.9573,18.2129 C229.2393,19.0379 230.6243,19.4899 232.1663,19.4159 C232.7123,19.3889 233.2333,19.2669 233.7233,19.0389 C235.0813,18.4059 235.4753,16.7539 234.5743,15.5579 C234.2303,15.1019 233.7933,14.7539 233.2933,14.5059 C232.0803,13.9049 230.8533,13.3329 229.6293,12.7549 C228.7373,12.3349 227.8663,11.8779 227.0823,11.2759 C225.8673,10.3439 225.0473,9.1519 224.8823,7.6069 C224.5833,4.8199 225.8243,2.6099 228.1653,1.3719 C229.3673,0.7359 230.6593,0.4559 232.0213,0.4339 C233.9013,0.4029 235.6653,0.8149 237.3143,1.7139 C237.5893,1.8639 237.8573,2.0399 238.0943,2.2449 C238.5663,2.6519 238.6803,3.1289 238.4193,3.6969 C238.1943,4.1849 237.9333,4.6589 237.6483,5.1139 C237.3443,5.5999 236.9463,5.7229 236.3973,5.5239 C236.1033,5.4179 235.8223,5.2669 235.5493,5.1129 C234.3753,4.4499 233.1303,4.0769 231.7703,4.1759 C231.0783,4.2269 230.4143,4.3909 229.8343,4.7949 C228.8193,5.5019 228.5803,6.8259 229.2763,7.8469 C229.5983,8.3189 230.0333,8.6749 230.5343,8.9239 C231.4793,9.3949 232.4483,9.8199 233.4023,10.2739 C234.2393,10.6719 235.0843,11.0579 235.9003,11.4959 C236.7243,11.9379 237.4403,12.5269 238.0163,13.2769 C238.8853,14.4079 239.1733,15.6909 239.0883,17.0939 C239.0163,18.2959 238.6533,19.3879 237.9583,20.3629 C236.8863,21.8659 235.3793,22.6769 233.5973,23.0049 C232.9973,23.1149 232.3813,23.1379 231.7733,23.2009" id="Fill-51" fill="#61A60D"></path></g></g></g></svg> 